# xmcd
#
# Track frame offsets: 
#        150
#        23540
#        27164
#        39911
#        56302
#        60794
#        77187
#        86620
#        108540
#        112094
#        125161
#        137557
#        152912
#
# Disc length: 2136 seconds
#
# Revision: 0
# Processed by: cddbd v1.5.2PL0 Copyright (c) Steve Scherf et al.
# Submitted via: ExactAudioCopy v0.95b4
#
DISCID=9e08560d
DTITLE=Delaney Davidson - Rough Diamond
DYEAR=2008
DGENRE=
TTITLE0=I Told A Secret
TTITLE1=Golden Heart II
TTITLE2=Dark Horses
TTITLE3=I Slept Late
TTITLE4=Foggy Harbour
TTITLE5=You've Changed
TTITLE6=Wicked Wiggler
TTITLE7=Dixon Lie
TTITLE8=In The Aisles
TTITLE9=Pocket Full Of Money
TTITLE10=Zownir
TTITLE11=Time Has Gone
TTITLE12=Frontseat
EXTD=
EXTT0=
EXTT1=
EXTT2=
EXTT3=
EXTT4=
EXTT5=
EXTT6=
EXTT7=
EXTT8=
EXTT9=
EXTT10=
EXTT11=
EXTT12=
PLAYORDER=
